<?xml version="1.0" encoding="UTF-8"?>
<svg version="1.1" xmlns="http://www.w3.org/2000/svg" width="512" height="512">
<path d="M0 0 C1.89271637 -0.01925285 1.89271637 -0.01925285 3.82366943 -0.03889465 C5.20828865 -0.04706316 6.59291231 -0.05450668 7.97753906 -0.0612793 C8.6743 -0.06535482 9.37106094 -0.06943035 10.08893585 -0.07362938 C13.7786886 -0.09449328 17.46840414 -0.10879209 21.15820312 -0.11816406 C24.96250317 -0.12921364 28.76621588 -0.16359487 32.57030869 -0.20333576 C35.50092628 -0.22953416 38.43140482 -0.23785883 41.36212921 -0.24144554 C42.7639181 -0.2463053 44.16570103 -0.25790202 45.56737518 -0.27648354 C47.53435585 -0.30093274 49.50162257 -0.2974845 51.46875 -0.29296875 C52.58634705 -0.29883499 53.70394409 -0.30470123 54.85540771 -0.31074524 C58.76040437 0.29626529 60.91830124 1.73756477 63.99316406 4.17700195 C67.72313373 9.96488592 67.42825398 16.24975556 67.58691406 22.9465332 C67.78800781 24.54561523 67.78800781 24.54561523 67.99316406 26.17700195 C71.51760387 28.52662849 73.02781538 28.42821239 77.20019531 28.45043945 C78.42673828 28.47106445 79.65328125 28.49168945 80.91699219 28.51293945 C83.49765554 28.53886274 86.07840736 28.55716259 88.65917969 28.56762695 C100.5213389 28.79132404 100.5213389 28.79132404 104.99316406 33.17700195 C106.80864855 35.88310147 107.99316406 38.8760887 107.99316406 42.17700195 C109.06978302 42.17034012 110.14640198 42.16367828 111.25564575 42.15681458 C121.40788426 42.09596687 131.56008571 42.05101169 141.71246529 42.02156544 C146.93175997 42.00591784 152.1509073 41.98469594 157.37011719 41.95068359 C162.40811484 41.91805809 167.44597086 41.90014212 172.48406601 41.89237022 C174.40497949 41.88683247 176.32588534 41.87601856 178.24673843 41.85981178 C180.93988981 41.83799516 183.63245789 41.8350368 186.32568359 41.83642578 C187.11762619 41.82563995 187.90956879 41.81485413 188.72550964 41.80374146 C194.34244878 41.83503264 198.41415247 43.00027208 202.82128906 46.7199707 C203.29050781 47.26266602 203.75972656 47.80536133 204.24316406 48.36450195 C204.72269531 48.89430664 205.20222656 49.42411133 205.69628906 49.9699707 C209.47080547 56.39347001 209.29611321 63.77845513 209.31201172 70.99926758 C209.32205734 72.05382141 209.33210297 73.10837524 209.342453 74.19488525 C209.37318115 77.65766895 209.39029141 81.12037568 209.40722656 84.58325195 C209.42594653 86.99321144 209.44552056 89.40316443 209.46591187 91.81311035 C209.51715134 98.13903974 209.55682095 104.46499036 209.59405518 110.79101562 C209.6341461 117.25306414 209.68521523 123.71502495 209.73535156 130.17700195 C209.83201398 142.84360584 209.91682289 155.51026012 209.99316406 168.17700195 C212.08223256 164.96768064 214.17046157 161.75781391 216.25854492 158.54785156 C216.84713036 157.64366234 217.43571579 156.73947311 218.04213715 155.80788422 C222.43887056 149.047585 226.75976515 142.24671618 231.01074219 135.39379883 C239.01113921 122.60852786 239.01113921 122.60852786 246.99316406 120.17700195 C258.10253742 118.16928388 265.13035173 122.22021226 273.99316406 128.17700195 C274.75113281 128.65008789 275.50910156 129.12317383 276.29003906 129.6105957 C281.20438025 132.81331806 284.14433237 136.63050687 285.99316406 142.17700195 C287.09395815 151.98660999 285.37189648 158.0620865 279.99316406 166.17700195 C279.18275712 167.44146669 278.37429189 168.70717721 277.56738281 169.97387695 C275.72148744 172.85702221 273.85735824 175.72736711 271.98144531 178.59106445 C268.95812855 183.21472752 265.99976473 187.87760495 263.05566406 192.55200195 C262.55728027 193.3428418 262.05889648 194.13368164 261.54541016 194.94848633 C260.53309792 196.5554139 259.5210541 198.16251061 258.50927734 199.76977539 C256.00789692 203.74137137 253.50026947 207.70901844 250.99316406 211.67700195 C248.01530063 216.39102599 245.03800569 221.10540436 242.06347656 225.8215332 C236.6596619 234.38737399 231.24152825 242.94395821 225.80566406 251.48950195 C225.25990723 252.34777588 224.71415039 253.2060498 224.15185547 254.09033203 C223.61093262 254.94006592 223.07000977 255.7897998 222.51269531 256.6652832 C221.99411988 257.5040267 221.47554445 258.3427702 220.94125462 259.20693016 C218.99316406 262.17700195 218.99316406 262.17700195 216.71874142 265.02280617 C208.79265212 275.54414012 208.73631701 284.8125843 208.91137695 297.65112305 C208.90732001 299.78797475 208.89927398 301.92482199 208.88757324 304.06164551 C208.86691812 309.82618674 208.90089499 315.58924342 208.94455266 321.3536067 C208.98031032 327.4010215 208.96328415 333.44828224 208.95152283 339.49575806 C208.93684417 350.93951225 208.96605001 362.3826872 209.01269382 373.82633936 C209.0794459 390.62660633 209.08569275 407.42692106 209.08502102 424.22730446 C209.08499319 425.4608606 209.08496535 426.69441674 209.08493668 427.96535337 C209.08486166 430.42506707 209.08466428 432.88478078 209.08434099 435.34449446 C209.08495862 442.53612833 209.10032494 449.72754071 209.12864411 456.91911769 C209.14503079 461.39031659 209.15378417 465.86151128 209.16114044 470.33273315 C209.16643671 472.40314573 209.17523593 474.4735528 209.18782616 476.54393387 C209.20472058 479.37370029 209.20929597 482.20324011 209.21107483 485.03305054 C209.22318555 486.25611202 209.22318555 486.25611202 209.23554093 487.50388181 C209.21813366 494.47218309 208.59696275 501.21056879 203.68066406 506.55200195 C203.10703125 507.19911133 202.53339844 507.8462207 201.94238281 508.51293945 C198.02102336 511.86063309 194.15803997 512.42719969 189.11601353 512.43147755 C187.93237077 512.43730974 186.74872802 512.44314193 185.5292173 512.44915086 C183.58449191 512.44348187 183.58449191 512.44348187 181.60047913 512.43769836 C180.2062554 512.4407191 178.81203333 512.44460819 177.4178142 512.44929093 C173.58693415 512.45958967 169.75614749 512.45738435 165.92525971 512.45311034 C161.7936229 512.45064653 157.66200878 512.45965296 153.53038025 512.46714783 C145.43636595 512.47990628 137.3423848 512.48168711 129.24836213 512.47934756 C122.67053455 512.47756559 116.09271705 512.47931145 109.51489067 512.48357201 C108.57922836 512.4841672 107.64356605 512.48476238 106.67955033 512.48537561 C104.77884639 512.48658734 102.87814244 512.48780147 100.9774385 512.48901799 C83.14715303 512.49989786 65.31688646 512.49772886 47.48659991 512.49163314 C31.16943458 512.48646308 14.85232892 512.49772097 -1.46482461 512.51673136 C-18.21406133 512.53609577 -34.9632698 512.54436825 -51.7125178 512.54060811 C-61.11805184 512.538694 -70.52353506 512.54120401 -79.92905998 512.55532265 C-87.93566135 512.5672196 -95.94218063 512.56866029 -103.94878309 512.55653248 C-108.03457715 512.55063203 -112.12022093 512.54957645 -116.2060051 512.56153488 C-119.94592079 512.57235392 -123.68556001 512.56933809 -127.42546255 512.5552732 C-129.4200291 512.55135562 -131.41460775 512.56220576 -133.40914577 512.57357007 C-134.59539627 512.56636353 -135.78164678 512.55915699 -137.00384426 512.55173206 C-138.02561935 512.55178708 -139.04739444 512.55184209 -140.10013241 512.55189878 C-145.22886499 511.89041213 -149.07888602 509.65987301 -152.31933594 505.67700195 C-152.81046875 505.08918945 -153.30160156 504.50137695 -153.80761719 503.89575195 C-156.43147886 500.13516844 -156.14930147 496.27407714 -156.1382637 491.89050579 C-156.14031634 491.13920392 -156.14236897 490.38790205 -156.1444838 489.61383346 C-156.15017436 487.07609147 -156.14869403 484.5384034 -156.14727783 482.00065613 C-156.14986029 480.17093112 -156.15287311 478.34120667 -156.15628123 476.51148301 C-156.16436848 471.46754315 -156.16614176 466.42361751 -156.1668787 461.37967193 C-156.16872625 455.94601741 -156.17627204 450.51237033 -156.18301392 445.07872009 C-156.19660972 433.19044527 -156.20262382 421.30217381 -156.20702457 409.41389251 C-156.20978473 401.99499105 -156.21402165 394.5760909 -156.21852875 387.15719032 C-156.23072274 366.62820995 -156.24102199 346.09923062 -156.24440384 325.5702467 C-156.24462341 324.25574204 -156.24484297 322.94123737 -156.24506919 321.58689924 C-156.24528747 320.26919939 -156.24550575 318.95149954 -156.24573064 317.59386939 C-156.24617319 314.9235822 -156.24662031 312.253295 -156.24707031 309.58300781 C-156.2471797 308.92093087 -156.24728909 308.25885393 -156.2474018 307.57671405 C-156.25103326 286.10388293 -156.26695656 264.63108555 -156.29026068 243.15826736 C-156.31484736 220.46222771 -156.3285694 197.76620736 -156.32977176 175.07015401 C-156.33068963 162.69564265 -156.33647008 150.32117547 -156.35459137 137.94667625 C-156.36996501 127.41112903 -156.37512901 116.87563963 -156.36685327 106.34008332 C-156.36293713 100.96219294 -156.36392327 95.58441913 -156.37791061 90.20654297 C-156.39059175 85.28600576 -156.38950318 80.3656734 -156.3773199 75.4451367 C-156.37535283 73.66249152 -156.3784876 71.87983212 -156.38716426 70.09720697 C-156.39819536 67.67822796 -156.39081253 65.25997976 -156.37877274 62.84102154 C-156.38636793 62.14531179 -156.39396312 61.44960203 -156.40178847 60.73281017 C-156.34359787 55.33498287 -154.96639736 51.30134468 -151.28808594 47.3137207 C-150.70027344 46.83547852 -150.11246094 46.35723633 -149.50683594 45.86450195 C-148.62511719 45.12780273 -148.62511719 45.12780273 -147.72558594 44.3762207 C-143.70180902 41.56872181 -139.36699081 42.04248407 -134.67993164 42.06347656 C-133.83093292 42.06333054 -132.9819342 42.06318451 -132.10720825 42.06303406 C-129.2989853 42.06373112 -126.49082856 42.07151389 -123.68261719 42.0793457 C-121.73634375 42.08121062 -119.79006985 42.08263417 -117.84379578 42.08363342 C-112.71949977 42.08745283 -107.59523208 42.09727822 -102.47094727 42.1083374 C-97.24267968 42.11856389 -92.01440752 42.1231337 -86.78613281 42.12817383 C-76.52635474 42.13890098 -66.26659769 42.15597052 -56.00683594 42.17700195 C-55.81696609 41.55659027 -55.62709625 40.93617859 -55.43147278 40.29696655 C-55.04495796 39.07815292 -55.04495796 39.07815292 -54.65063477 37.8347168 C-54.39888992 37.02868011 -54.14714508 36.22264343 -53.88777161 35.3921814 C-53.00683594 33.17700195 -53.00683594 33.17700195 -50.70605469 30.65356445 C-44.86488503 28.32203105 -39.05092925 28.57726944 -32.81933594 28.55200195 C-30.28408156 28.52653481 -27.74889109 28.49306729 -25.21386719 28.45043945 C-24.09471924 28.44447754 -22.97557129 28.43851563 -21.82250977 28.43237305 C-18.80043349 28.38410064 -18.80043349 28.38410064 -16.00683594 26.17700195 C-15.53157742 23.06428858 -15.53157742 23.06428858 -15.50683594 19.48950195 C-15.14758391 12.60736017 -14.56082394 8.11795783 -9.94433594 2.80200195 C-6.56388571 -0.03321436 -4.3566397 0.03848448 0 0 Z " fill="#F3F3F3" transform="translate(191.0068359375,-0.177001953125)"/>
<path d="M0 0 C1.28812843 -0.00021904 1.28812843 -0.00021904 2.60227966 -0.0004425 C5.44296793 0.0002546 8.28359076 0.00803756 11.12426758 0.01586914 C13.09296126 0.01773404 15.06165542 0.0191576 17.03034973 0.02015686 C22.21382934 0.02397638 27.39728096 0.03380187 32.58074951 0.04486084 C37.86934022 0.05508709 43.15793546 0.05965709 48.4465332 0.06469727 C58.82480269 0.07542462 69.20304405 0.09301688 79.58129883 0.11352539 C79.58129883 10.34352539 79.58129883 20.57352539 79.58129883 31.11352539 C72.48694336 31.16959961 72.48694336 31.16959961 65.24926758 31.22680664 C62.25509031 31.25707858 59.26097307 31.28822115 56.2668457 31.32250977 C51.51321401 31.37686491 46.75970105 31.4279732 42.00585938 31.45996094 C38.17367262 31.48594858 34.34188383 31.52631792 30.50994301 31.57671165 C29.04715228 31.59341128 27.58429267 31.60490627 26.12141991 31.6111393 C24.07401066 31.62074733 22.02762659 31.64876369 19.98046875 31.68115234 C18.81464767 31.6922554 17.6488266 31.70335846 16.44767761 31.71479797 C13.65248495 31.89039493 13.65248495 31.89039493 11.92574537 33.22546387 C9.92376354 36.03692921 10.20515245 38.29362144 10.20377541 41.72123718 C10.19941508 42.3991494 10.19505476 43.07706162 10.19056231 43.77551663 C10.17955016 46.06376031 10.19005528 48.35140843 10.2003479 50.63964844 C10.19689368 52.29002283 10.19213071 53.94039491 10.18616617 55.59076214 C10.17359408 60.13888409 10.17985463 64.68681821 10.18912482 69.23494101 C10.19588967 74.13480015 10.18544687 79.03462613 10.17718506 83.93447876 C10.16381804 93.53842573 10.16673865 103.14230253 10.17542298 112.7462523 C10.18218747 120.54888884 10.18312161 128.35150566 10.17985153 136.15414429 C10.17939183 137.26301614 10.17893213 138.371888 10.1784585 139.51436204 C10.17749937 141.76674025 10.17652673 144.01911845 10.17554073 146.27149665 C10.16697814 167.41132901 10.17683459 188.5511224 10.19294183 209.69094837 C10.20634579 227.84517326 10.20401794 245.9993406 10.19018555 264.15356445 C10.17414507 285.2157489 10.16780219 306.27789915 10.17702234 327.34008884 C10.17797802 329.58436139 10.17892114 331.82863394 10.17985153 334.07290649 C10.18031436 335.1772435 10.18077719 336.28158051 10.18125404 337.41938227 C10.18384853 345.21615046 10.17946306 353.01289703 10.17241287 360.80966187 C10.16401467 370.30629469 10.16624252 379.80285309 10.1822551 389.29947734 C10.19016052 394.14839956 10.19319095 398.99719752 10.18330765 403.84611893 C10.17440701 408.27985683 10.17921655 412.7133546 10.1952403 417.14707053 C10.19860786 418.75603866 10.1968501 420.36502684 10.18961294 421.97398221 C10.18056501 424.15155281 10.18976959 426.32828758 10.20377541 428.5058136 C10.20426246 429.71815328 10.20474952 430.93049295 10.20525134 432.1795702 C10.34569102 435.09367855 10.34569102 435.09367855 11.91784018 437.00343591 C14.61773515 438.80517893 17.11651751 438.48145555 20.31999207 438.47428894 C21.00859214 438.47685221 21.69719221 438.47941549 22.40665895 438.48205644 C24.71925914 438.4870068 27.03120973 438.47048149 29.34375 438.45410156 C30.99934372 438.45325556 32.65493856 438.45372991 34.31053162 438.45542908 C38.81030862 438.4562915 43.30984678 438.43862591 47.80956817 438.4177072 C52.5101029 438.39898144 57.21064283 438.3971932 61.91120911 438.39363098 C70.81473631 438.38429844 79.7181533 438.35966832 88.62163192 438.32958251 C98.75692239 438.29607609 108.89221806 438.27956196 119.0275501 438.26449621 C139.87886125 438.23311981 160.7300731 438.18033584 181.58129883 438.11352539 C181.10321777 437.67322998 180.62513672 437.23293457 180.13256836 436.77929688 C177.82098048 434.2970866 177.76212429 432.48238238 177.58129883 429.11352539 C178.06295408 426.19024853 178.87231827 423.391227 179.70629883 420.55102539 C180.17865634 418.85505122 180.64862323 417.15840978 181.11645508 415.46118164 C181.36024902 414.58349121 181.60404297 413.70580078 181.85522461 412.80151367 C183.04776403 408.38663169 184.09674057 403.93975194 185.14379883 399.48852539 C185.35359375 398.6105127 185.56338867 397.7325 185.77954102 396.82788086 C186.75438624 392.72851223 187.69341523 388.62846063 188.53833008 384.50024414 C191.79382306 368.89405074 199.30618353 356.64910402 208.00415039 343.51489258 C210.89044203 339.12022314 213.7012562 334.67745855 216.51879883 330.23852539 C217.11104248 329.3067749 217.70328613 328.37502441 218.31347656 327.41503906 C223.5962013 319.1002136 228.85828108 310.77239822 234.11352539 302.44018555 C236.6011324 298.49692294 239.09136297 294.55531771 241.58129883 290.61352539 C242.58131107 289.03019979 243.58131108 287.44686646 244.58129883 285.86352539 C250.58129883 276.36352539 256.58129883 266.86352539 262.58129883 257.36352539 C263.0761377 256.58001709 263.57097656 255.79650879 264.08081055 254.98925781 C265.08238918 253.40345214 266.08401691 251.81767748 267.08569336 250.23193359 C269.56194067 246.31167782 272.03737584 242.39091432 274.51098633 238.46899414 C279.85013165 230.00588081 285.20579102 221.55359569 290.58129883 213.11352539 C295.19437717 205.86915586 299.80197492 198.62139009 304.39379883 191.36352539 C305.15853516 190.15696289 305.15853516 190.15696289 305.9387207 188.92602539 C306.4047168 188.18868164 306.87071289 187.45133789 307.35083008 186.69165039 C307.75922119 186.04615234 308.1676123 185.4006543 308.58837891 184.7355957 C310.6257204 181.40732009 310.71087024 179.26398424 310.72174072 175.35047913 C310.72745087 174.12359879 310.73316101 172.89671844 310.73904419 171.63265991 C310.74028959 170.26568614 310.74141468 168.89871225 310.74243164 167.53173828 C310.74705886 166.09790417 310.75208339 164.6640713 310.75747681 163.23023987 C310.77061056 159.3294553 310.77704745 155.42868795 310.78148746 151.52788472 C310.78441612 149.09259194 310.78852049 146.65730388 310.79299164 144.22201347 C310.80666804 136.6075534 310.81633446 128.99310411 310.82019353 121.37863261 C310.82467728 112.5792262 310.84223922 103.7799749 310.87119412 94.98061568 C310.8927826 88.18482774 310.90289626 81.38908354 310.90423465 74.59326166 C310.90528456 70.53151044 310.91123174 66.46990499 310.92905426 62.40818977 C310.94548651 58.58900617 310.94771427 54.77007869 310.93891525 50.95087242 C310.93814231 49.54758648 310.94252134 48.14428703 310.9523735 46.74103546 C310.96501552 44.82858348 310.95745285 42.91602945 310.9487915 41.0035553 C310.95099134 39.39661851 310.95099134 39.39661851 310.95323563 37.75721836 C310.79046524 35.09659924 310.79046524 35.09659924 309.23747921 33.27031898 C306.63706763 31.4540075 304.3176598 31.71101454 301.18212891 31.68115234 C300.53795517 31.67096069 299.89378143 31.66076904 299.23008728 31.65026855 C297.10358014 31.620105 294.97752317 31.61086808 292.85083008 31.60180664 C291.3753662 31.58496233 289.8999167 31.56681242 288.42448425 31.54740906 C284.54310599 31.49987546 280.66178598 31.47008813 276.7802124 31.44396973 C272.12195838 31.40894257 267.46392816 31.35192041 262.8058548 31.29857635 C255.73103096 31.22002291 248.65650085 31.16944822 241.58129883 31.11352539 C241.58129883 20.88352539 241.58129883 10.65352539 241.58129883 0.11352539 C252.95144239 0.04571763 264.32145139 -0.00930929 275.69175148 -0.04191113 C280.97157943 -0.05755926 286.25126173 -0.07878216 291.53100586 -0.11279297 C296.62735804 -0.14541653 301.72357022 -0.16333404 306.82001877 -0.17110634 C308.76326069 -0.17664444 310.70649504 -0.18745902 312.64967728 -0.20366478 C315.37395976 -0.22547879 318.09766555 -0.22843986 320.82202148 -0.22705078 C322.02396149 -0.24322952 322.02396149 -0.24322952 323.25018311 -0.25973511 C328.89487082 -0.22864274 332.97855893 0.91676843 337.40942383 4.65649414 C337.87864258 5.19918945 338.34786133 5.74188477 338.83129883 6.30102539 C339.31083008 6.83083008 339.79036133 7.36063477 340.28442383 7.90649414 C344.05894024 14.32999345 343.88424798 21.71497857 343.90014648 28.93579102 C343.91019211 29.99034485 343.92023773 31.04489868 343.93058777 32.13140869 C343.96131592 35.59419238 343.97842618 39.05689912 343.99536133 42.51977539 C344.0140813 44.92973488 344.03365532 47.33968787 344.05404663 49.74963379 C344.10528611 56.07556318 344.14495571 62.4015138 344.18218994 68.72753906 C344.22228087 75.18958757 344.27335 81.65154839 344.32348633 88.11352539 C344.42014874 100.78012928 344.50495765 113.44678355 344.58129883 126.11352539 C346.67036733 122.90420408 348.75859633 119.69433735 350.84667969 116.484375 C351.43526512 115.58018578 352.02385056 114.67599655 352.63027191 113.74440765 C357.02700533 106.98410844 361.34789991 100.18323962 365.59887695 93.33032227 C373.59927398 80.5450513 373.59927398 80.5450513 381.58129883 78.11352539 C392.69067218 76.10580731 399.7184865 80.1567357 408.58129883 86.11352539 C409.33926758 86.58661133 410.09723633 87.05969727 410.87817383 87.54711914 C415.79251502 90.7498415 418.73246713 94.56703031 420.58129883 100.11352539 C421.68209291 109.92313343 419.96003125 115.99860994 414.58129883 124.11352539 C413.77089188 125.37799013 412.96242666 126.64370065 412.15551758 127.91040039 C410.30962221 130.79354565 408.445493 133.66389055 406.56958008 136.52758789 C403.54626331 141.15125096 400.58789949 145.81412839 397.64379883 150.48852539 C397.14541504 151.27936523 396.64703125 152.07020508 396.13354492 152.88500977 C395.12123268 154.49193734 394.10918887 156.09903404 393.09741211 157.70629883 C390.59603168 161.6778948 388.08840424 165.64554188 385.58129883 169.61352539 C382.60343539 174.32754942 379.62614045 179.0419278 376.65161133 183.75805664 C371.24779666 192.32389743 365.82966302 200.88048165 360.39379883 209.42602539 C359.84804199 210.28429932 359.30228516 211.14257324 358.73999023 212.02685547 C358.19906738 212.87658936 357.65814453 213.72632324 357.10083008 214.60180664 C356.58225465 215.44055014 356.06367922 216.27929363 355.52938938 217.1434536 C353.58129883 220.11352539 353.58129883 220.11352539 351.30687618 222.95932961 C343.38078689 233.48066356 343.32445177 242.74910773 343.49951172 255.58764648 C343.49545478 257.72449818 343.48740875 259.86134543 343.47570801 261.99816895 C343.45505289 267.76271018 343.48902975 273.52576686 343.53268743 279.29013014 C343.56844508 285.33754494 343.55141891 291.38480568 343.53965759 297.43228149 C343.52497894 308.87603569 343.55418478 320.31921064 343.60082859 331.7628628 C343.66758067 348.56312977 343.67382751 365.3634445 343.67315578 382.1638279 C343.67312795 383.39738404 343.67310012 384.63094018 343.67307144 385.90187681 C343.67299642 388.36159051 343.67279904 390.82130422 343.67247576 393.2810179 C343.67309339 400.47265177 343.6884597 407.66406415 343.71677887 414.85564113 C343.73316555 419.32684003 343.74191893 423.79803471 343.74927521 428.26925659 C343.75457147 430.33966916 343.7633707 432.41007624 343.77596092 434.48045731 C343.79285535 437.31022373 343.79743073 440.13976355 343.79920959 442.96957397 C343.81132031 444.19263546 343.81132031 444.19263546 343.82367569 445.44040525 C343.80626843 452.40870653 343.18509752 459.14709222 338.26879883 464.48852539 C337.69516602 465.13563477 337.1215332 465.78274414 336.53051758 466.44946289 C332.60915813 469.79715653 328.74617474 470.36372313 323.70414829 470.36800098 C322.52050554 470.37383318 321.33686278 470.37966537 320.11735207 470.3856743 C318.82086847 470.38189497 317.52438487 470.37811565 316.18861389 470.3742218 C314.79439017 470.37724254 313.4001681 470.38113163 312.00594896 470.38581437 C308.17506891 470.39611311 304.34428225 470.39390779 300.51339447 470.38963377 C296.38175767 470.38716996 292.25014355 470.3961764 288.11851501 470.40367126 C280.02450071 470.41642972 271.93051956 470.41821054 263.8364969 470.415871 C257.25866932 470.41408903 250.68085181 470.41583488 244.10302544 470.42009544 C243.16736312 470.42069063 242.23170081 470.42128582 241.2676851 470.42189905 C239.36698115 470.42311078 237.46627721 470.42432491 235.56557327 470.42554142 C217.73528779 470.43642129 199.90502122 470.4342523 182.07473468 470.42815658 C165.75756934 470.42298652 149.44046369 470.43424441 133.12331016 470.4532548 C116.37407343 470.47261921 99.62486496 470.48089168 82.87561697 470.47713155 C73.47008293 470.47521744 64.0645997 470.47772745 54.65907478 470.49184608 C46.65247342 470.50374304 38.64595413 470.50518372 30.63935167 470.49305592 C26.55355762 470.48715547 22.46791383 470.48609989 18.38212967 470.49805832 C14.64221398 470.50887736 10.90257475 470.50586153 7.16267221 470.49179664 C5.16810566 470.48787906 3.17352702 470.4987292 1.17898899 470.51009351 C-0.00726151 470.50288697 -1.19351201 470.49568042 -2.4157095 470.4882555 C-3.43748458 470.48831052 -4.45925967 470.48836553 -5.51199764 470.48842221 C-10.64073023 469.82693557 -14.49075125 467.59639645 -17.73120117 463.61352539 C-18.22233398 463.02571289 -18.7134668 462.43790039 -19.21948242 461.83227539 C-21.8433441 458.07169188 -21.5611667 454.21060058 -21.55012894 449.82702923 C-21.55218157 449.07572736 -21.5542342 448.32442549 -21.55634904 447.55035689 C-21.5620396 445.01261491 -21.56055927 442.47492684 -21.55914307 439.93717957 C-21.56172552 438.10745456 -21.56473834 436.27773011 -21.56814647 434.44800645 C-21.57623371 429.40406659 -21.578007 424.36014095 -21.57874393 419.31619537 C-21.58059148 413.88254085 -21.58813727 408.44889377 -21.59487915 403.01524353 C-21.60847495 391.12696871 -21.61448905 379.23869725 -21.61888981 367.35041595 C-21.62164997 359.93151449 -21.62588688 352.51261434 -21.63039398 345.09371376 C-21.64258797 324.56473338 -21.65288723 304.03575406 -21.65626907 283.50677013 C-21.65648864 282.19226547 -21.65670821 280.87776081 -21.65693443 279.52342268 C-21.6571527 278.20572283 -21.65737098 276.88802298 -21.65759587 275.53039283 C-21.65803843 272.86010563 -21.65848554 270.18981844 -21.65893555 267.51953125 C-21.65904494 266.85745431 -21.65915433 266.19537736 -21.65926703 265.51323748 C-21.6628985 244.04040636 -21.67882179 222.56760899 -21.70212591 201.09479079 C-21.7267126 178.39875115 -21.74043463 155.7027308 -21.74163699 133.00667745 C-21.74255486 120.63216609 -21.74833532 108.25769891 -21.7664566 95.88319969 C-21.78183024 85.34765246 -21.78699424 74.81216307 -21.7787185 64.27660676 C-21.77480236 58.89871638 -21.7757885 53.52094257 -21.78977585 48.14306641 C-21.80245698 43.2225292 -21.80136841 38.30219683 -21.78918514 33.38166014 C-21.78721807 31.59901496 -21.79035284 29.81635556 -21.7990295 28.03373041 C-21.8100606 25.6147514 -21.80267776 23.1965032 -21.79063797 20.77754498 C-21.79823316 20.08183522 -21.80582836 19.38612547 -21.81365371 18.66933361 C-21.75546311 13.27150631 -20.3782626 9.23786812 -16.69995117 5.25024414 C-16.11213867 4.77200195 -15.52432617 4.29375977 -14.91870117 3.80102539 C-14.33088867 3.30989258 -13.74307617 2.81875977 -13.13745117 2.31274414 C-9.09122916 -0.51041531 -4.71306204 -0.02086589 0 0 Z " fill="#FEC250" transform="translate(56.418701171875,41.886474609375)"/>
<path d="M0 0 C11.37014356 -0.06780776 22.74015256 -0.12283468 34.11045265 -0.15543652 C39.3902806 -0.17108465 44.6699629 -0.19230755 49.94970703 -0.22631836 C55.04605921 -0.25894192 60.14227139 -0.27685943 65.23871994 -0.28463173 C67.18196186 -0.29016983 69.12519621 -0.30098441 71.06837845 -0.31719017 C73.79266093 -0.33900418 76.51636673 -0.34196525 79.24072266 -0.34057617 C80.44266266 -0.35675491 80.44266266 -0.35675491 81.66888428 -0.3732605 C87.31357199 -0.34216813 91.39726011 0.80324304 95.828125 4.54296875 C96.29734375 5.08566406 96.7665625 5.62835938 97.25 6.1875 C97.72953125 6.71730469 98.2090625 7.24710938 98.703125 7.79296875 C102.47764141 14.21646806 102.30294915 21.60145318 102.31884766 28.82226562 C102.33391609 30.40409637 102.33391609 30.40409637 102.34928894 32.0178833 C102.38001709 35.48066699 102.39712735 38.94337373 102.4140625 42.40625 C102.43278247 44.81620949 102.4523565 47.22616248 102.4727478 49.6361084 C102.52398728 55.96203779 102.56365689 62.28798841 102.60089111 68.61401367 C102.64098204 75.07606218 102.69205117 81.538023 102.7421875 88 C102.83884992 100.66660389 102.92365882 113.33325816 103 126 C105.0890685 122.79067868 107.1772975 119.58081196 109.26538086 116.37084961 C109.85396629 115.46666039 110.44255173 114.56247116 111.04897308 113.63088226 C115.4457065 106.87058305 119.76660108 100.06971423 124.01757812 93.21679688 C132.01797515 80.43152591 132.01797515 80.43152591 140 78 C151.10937335 75.99228192 158.13718767 80.04321031 167 86 C168.13695312 86.70962891 168.13695312 86.70962891 169.296875 87.43359375 C174.21121619 90.63631611 177.1511683 94.45350491 179 100 C180.10079408 109.80960804 178.37873242 115.88508455 173 124 C172.18959305 125.26446474 171.38112783 126.53017526 170.57421875 127.796875 C168.74412756 130.65542209 166.89573612 133.50105661 165.03515625 136.33984375 C161.73935203 141.37952858 158.52217151 146.46766162 155.3125 151.5625 C154.78317871 152.40232422 154.25385742 153.24214844 153.70849609 154.10742188 C152.47153381 156.07111491 151.23531629 158.03527124 150 160 C142.25165312 156.03378356 135.02521426 151.51216288 127.84008789 146.6081543 C127.14133545 146.1419165 126.44258301 145.67567871 125.72265625 145.1953125 C125.10140869 144.77266113 124.48016113 144.35000977 123.84008789 143.91455078 C121.74547571 142.70328421 121.74547571 142.70328421 118 143 C116.26740447 144.88782841 116.26740447 144.88782841 114.8203125 147.4765625 C114.22839111 148.44634033 113.63646973 149.41611816 113.02661133 150.4152832 C112.39907959 151.47448975 111.77154785 152.53369629 111.125 153.625 C109.77834562 155.84045304 108.43066687 158.05528371 107.08203125 160.26953125 C106.40092285 161.39697754 105.71981445 162.52442383 105.01806641 163.68603516 C102.02104254 168.60759359 98.92118871 173.46099561 95.8125 178.3125 C94.65189465 180.13122391 93.49173285 181.95023094 92.33203125 183.76953125 C91.77338379 184.64561035 91.21473633 185.52168945 90.63916016 186.42431641 C88.08188202 190.44267868 85.54047234 194.47099937 83 198.5 C78.68356351 205.34415092 74.34721506 212.17535895 70 219 C63.64100507 228.983883 57.31419122 238.98773828 51 249 C44.09383641 259.95093812 37.16707251 270.88827451 30.21142578 281.80786133 C26.46139075 287.69716077 22.72452421 293.59453782 19 299.5 C14.68348424 306.3441012 10.34721532 313.17535853 6 320 C0.13929312 329.20155032 -5.69508305 338.41936079 -11.51464844 347.64697266 C-13.05198756 350.08235636 -14.59206842 352.51598793 -16.1328125 354.94921875 C-21.81691698 363.92914852 -27.46272114 372.92863433 -33 382 C-31.68322266 382.37125 -31.68322266 382.37125 -30.33984375 382.75 C-20.69810238 386.35860496 -14.31153293 394.54570926 -9 403 C-2.12037944 396.70037339 2.9410015 390.0519004 7.8125 382.125 C8.50118164 381.02655762 9.18986328 379.92811523 9.89941406 378.79638672 C11.29082129 376.5756233 12.67746552 374.35186777 14.05908203 372.125 C16.28131366 368.54706732 18.53182508 364.98783362 20.7878418 361.43115234 C22.24282247 359.13632058 23.69260652 356.83829266 25.140625 354.5390625 C28.08957959 349.85673747 31.04442427 345.17814762 34 340.5 C36.97784493 335.78596427 39.95515837 331.07159761 42.9296875 326.35546875 C45.40702945 322.42807572 47.88775338 318.50283386 50.37011719 314.57861328 C51.52292494 312.75477333 52.67449687 310.93015196 53.82519531 309.10498047 C55.71394976 306.10984469 57.60665537 303.11723573 59.5 300.125 C60.08765137 299.19131592 60.67530273 298.25763184 61.28076172 297.2956543 C61.83779785 296.4169165 62.39483398 295.53817871 62.96875 294.6328125 C63.45794922 293.85824707 63.94714844 293.08368164 64.45117188 292.28564453 C66.17381515 289.74349662 68.0715445 287.38842881 70 285 C70.09339719 304.48844453 70.16395653 323.97684371 70.20724869 343.46546555 C70.22788333 352.51416246 70.25602108 361.5627204 70.30175781 370.61132812 C70.34159806 378.49712059 70.36742625 386.38281243 70.37635398 394.26870275 C70.38157353 398.44515898 70.39385983 402.62132729 70.42292023 406.79769135 C70.45004508 410.72768586 70.45845105 414.65727352 70.45243073 418.58735275 C70.45353229 420.03054642 70.46150397 421.47375351 70.4768219 422.9168663 C70.49669965 424.88594499 70.48955984 426.85524137 70.48101807 428.82440186 C70.48470524 429.92686626 70.48839241 431.02933067 70.49219131 432.16520309 C69.87245326 435.73461092 68.92622322 436.9014896 66 439 C63.56681061 439.50336456 63.56681061 439.50336456 60.80041504 439.50793457 C59.22318413 439.52485352 59.22318413 439.52485352 57.61408997 439.54211426 C55.89182442 439.52996887 55.89182442 439.52996887 54.13476562 439.51757812 C52.92141037 439.5245874 51.70805511 439.53159668 50.45793152 439.53881836 C47.13327517 439.55340738 43.80961452 439.54998844 40.48501396 439.53730202 C37.00484764 439.52717002 33.52472367 439.53656823 30.04455566 439.54284668 C24.2003618 439.55012255 18.35637018 439.54053715 12.51220703 439.52148438 C5.75693953 439.4997155 -0.99784507 439.50676693 -7.75310087 439.52879 C-13.55451193 439.5469459 -19.35577767 439.54950147 -25.15720797 439.53903532 C-28.62150265 439.53280134 -32.08557039 439.53196185 -35.54985046 439.54518127 C-39.41167959 439.55888853 -43.27296845 439.53988685 -47.13476562 439.51757812 C-48.28294266 439.52567505 -49.43111969 439.53377197 -50.61408997 439.54211426 C-51.66557724 439.53083496 -52.71706451 439.51955566 -53.80041504 439.50793457 C-54.71332558 439.50642647 -55.62623611 439.50491837 -56.56681061 439.50336456 C-59.77543894 438.83958155 -60.96515661 437.51436372 -63 435 C-64.71274451 429.73293172 -63.37821352 425.55683927 -61.875 420.4375 C-61.40264249 418.74152583 -60.9326756 417.04488439 -60.46484375 415.34765625 C-60.2210498 414.46996582 -59.97725586 413.59227539 -59.72607422 412.68798828 C-58.5335348 408.2731063 -57.48455826 403.82622655 -56.4375 399.375 C-56.22770508 398.4969873 -56.01791016 397.61897461 -55.80175781 396.71435547 C-54.82691259 392.61498684 -53.8878836 388.51493524 -53.04296875 384.38671875 C-49.78747577 368.78052535 -42.2751153 356.53557863 -33.57714844 343.40136719 C-30.6908568 339.00669775 -27.88004263 334.56393316 -25.0625 330.125 C-24.17413452 328.72737427 -24.17413452 328.72737427 -23.26782227 327.30151367 C-17.98509752 318.98668821 -12.72301775 310.65887283 -7.46777344 302.32666016 C-4.98016643 298.38339755 -2.48993586 294.44179232 0 290.5 C1.00001224 288.9166744 2.00001225 287.33334107 3 285.75 C9 276.25 15 266.75 21 257.25 C21.49483887 256.4664917 21.98967773 255.6829834 22.49951172 254.87573242 C23.50109035 253.28992675 24.50271808 251.70415209 25.50439453 250.1184082 C27.98064184 246.19815243 30.45607701 242.27738893 32.9296875 238.35546875 C38.26883282 229.89235542 43.62449219 221.44007029 49 213 C53.61307834 205.75563047 58.22067609 198.5078647 62.8125 191.25 C63.57723633 190.0434375 63.57723633 190.0434375 64.35742188 188.8125 C64.82341797 188.07515625 65.28941406 187.3378125 65.76953125 186.578125 C66.17792236 185.93262695 66.58631348 185.28712891 67.00708008 184.62207031 C69.04442157 181.2937947 69.12957141 179.15045885 69.14044189 175.23695374 C69.14615204 174.01007339 69.15186218 172.78319305 69.15774536 171.51913452 C69.15899076 170.15216075 69.16011585 168.78518686 69.16113281 167.41821289 C69.16576003 165.98437878 69.17078456 164.55054591 69.17617798 163.11671448 C69.18931173 159.21592991 69.19574862 155.31516256 69.20018864 151.41435933 C69.20311729 148.97906654 69.20722166 146.54377849 69.21169281 144.10848808 C69.22536921 136.49402801 69.23503563 128.87957872 69.2388947 121.26510721 C69.24337846 112.46570081 69.26094039 103.66644951 69.2898953 94.86709028 C69.31148377 88.07130235 69.32159743 81.27555815 69.32293582 74.47973627 C69.32398573 70.41798505 69.32993291 66.3563796 69.34775543 62.29466438 C69.36418768 58.47548078 69.36641545 54.6565533 69.35761642 50.83734703 C69.35684348 49.43406109 69.36122251 48.03076164 69.37107468 46.62751007 C69.38371669 44.71505809 69.37615402 42.80250405 69.36749268 40.89002991 C69.36895924 39.81873872 69.3704258 38.74744753 69.3719368 37.64369297 C69.20916641 34.98307385 69.20916641 34.98307385 67.65618038 33.15679359 C65.05576881 31.34048211 62.73636097 31.59748915 59.60083008 31.56762695 C58.95665634 31.5574353 58.3124826 31.54724365 57.64878845 31.53674316 C55.52228131 31.50657961 53.39622434 31.49734269 51.26953125 31.48828125 C49.79406737 31.47143694 48.31861787 31.45328703 46.84318542 31.43388367 C42.96180716 31.38635007 39.08048715 31.35656274 35.19891357 31.33044434 C30.54065955 31.29541718 25.88262933 31.23839502 21.22455597 31.18505096 C14.14973213 31.10649752 7.07520202 31.05592283 0 31 C0 20.77 0 10.54 0 0 Z " fill="#FB8185" transform="translate(298,42)"/>
<path d="M0 0 C6.45380732 0.27643985 10.89950504 3.87005536 16.0625 7.375 C17.82382393 8.55007118 19.58553086 9.72456852 21.34765625 10.8984375 C22.12117432 11.42099121 22.89469238 11.94354492 23.69165039 12.48193359 C26.08906857 14.05857519 28.53024408 15.5398172 31 17 C30.34907907 20.45400822 28.98494685 22.90764627 27.11328125 25.8671875 C26.51169189 26.82407471 25.91010254 27.78096191 25.2902832 28.7668457 C24.63761475 29.79253662 23.98494629 30.81822754 23.3125 31.875 C22.63985107 32.94129639 21.96720215 34.00759277 21.27416992 35.10620117 C19.1888472 38.40802314 17.09554874 41.70466048 15 45 C14.37738281 45.98081543 13.75476563 46.96163086 13.11328125 47.97216797 C10.2044898 52.55382999 7.29030643 57.13200285 4.37109375 61.70703125 C0.5263895 67.73599906 -3.28841083 73.78374013 -7.09448242 79.8371582 C-7.55056885 80.5612085 -8.00665527 81.28525879 -8.4765625 82.03125 C-8.86924316 82.65580078 -9.26192383 83.28035156 -9.66650391 83.92382812 C-11 86 -11 86 -13.05090714 88.56978035 C-15.52838208 92.92990263 -15.56514289 96.04131783 -15.51898193 100.95968628 C-15.52648319 101.85094369 -15.53398444 102.7422011 -15.541713 103.66046631 C-15.5619803 106.64090672 -15.55388929 109.62058569 -15.54589844 112.60107422 C-15.55463395 114.73987073 -15.56511965 116.8786607 -15.57722473 119.0174408 C-15.60510779 124.82067134 -15.60848889 130.62368887 -15.60750484 136.42697668 C-15.61063194 142.49288051 -15.63624594 148.55868812 -15.65948486 154.62454224 C-15.70006389 166.10973933 -15.72039009 177.59487962 -15.73345876 189.08013737 C-15.74932231 202.15625772 -15.78773527 215.2322813 -15.82805204 228.30834556 C-15.91047709 255.20553124 -15.96455297 282.10271429 -16 309 C-16.33 309 -16.66 309 -17 309 C-17.33 238.71 -17.66 168.42 -18 96 C-31.33306117 116.82915207 -31.33306117 116.82915207 -44.56445312 137.72167969 C-47.03959576 141.64991626 -49.52010169 145.57476465 -52 149.5 C-54.97784493 154.21403573 -57.95515837 158.92840239 -60.9296875 163.64453125 C-66.85953993 173.04397818 -72.813845 182.4274846 -78.78417969 191.80126953 C-82.57571994 197.75626725 -86.35648997 203.71790234 -90.125 209.6875 C-90.61081543 210.45674805 -91.09663086 211.22599609 -91.59716797 212.01855469 C-94.09077853 215.96877948 -96.57949285 219.92200748 -99.0625 223.87890625 C-101.55657608 227.85063021 -104.06284211 231.81435381 -106.58154297 235.77050781 C-107.50783079 237.22642182 -108.43145583 238.68403434 -109.35205078 240.14355469 C-114.52360456 248.31688753 -119.71477068 255.50664343 -127 262 C-128.52498769 259.98337449 -130.02700563 257.96124656 -131.47265625 255.88671875 C-136.66960515 248.69781892 -142.99847156 243.80762388 -151 240 C-149.30219302 234.98647587 -146.47019409 230.79405461 -143.625 226.375 C-142.5337441 224.6641327 -141.44260139 222.9531932 -140.3515625 221.2421875 C-139.5147998 219.93459473 -139.5147998 219.93459473 -138.66113281 218.60058594 C-136.09122429 214.57726647 -133.54616611 210.53836918 -131 206.5 C-130.00013493 204.91658146 -129.00013452 203.33324837 -128 201.75 C-127.505 200.96625 -127.01 200.1825 -126.5 199.375 C-125 197 -123.5 194.625 -122 192.25 C-121.50516113 191.4664917 -121.01032227 190.6829834 -120.50048828 189.87573242 C-119.49890965 188.28992675 -118.49728192 186.70415209 -117.49560547 185.1184082 C-115.01935816 181.19815243 -112.54392299 177.27738893 -110.0703125 173.35546875 C-104.13905179 163.95378954 -98.18364471 154.56785392 -92.21142578 145.19213867 C-88.46139075 139.30283923 -84.72452421 133.40546218 -81 127.5 C-76.68348424 120.6558988 -72.34721532 113.82464147 -68 107 C-61.64100507 97.016117 -55.31419122 87.01226172 -49 77 C-42.09611536 66.05267556 -35.17249862 55.11839213 -28.21801758 44.203125 C-24.39995337 38.20805275 -20.6008361 32.20139064 -16.8125 26.1875 C-11.28165301 17.41056816 -5.65652209 8.69634597 0 0 Z " fill="#FB8185" transform="translate(416,184)"/>
<path d="M0 0 C1.89271637 -0.01925285 1.89271637 -0.01925285 3.82366943 -0.03889465 C5.20828865 -0.04706316 6.59291231 -0.05450668 7.97753906 -0.0612793 C8.6743 -0.06535482 9.37106094 -0.06943035 10.08893585 -0.07362938 C13.7786886 -0.09449328 17.46840414 -0.10879209 21.15820312 -0.11816406 C24.96250317 -0.12921364 28.76621588 -0.16359487 32.57030869 -0.20333576 C35.50092628 -0.22953416 38.43140482 -0.23785883 41.36212921 -0.24144554 C42.7639181 -0.2463053 44.16570103 -0.25790202 45.56737518 -0.27648354 C47.53435585 -0.30093274 49.50162257 -0.2974845 51.46875 -0.29296875 C52.58634705 -0.29883499 53.70394409 -0.30470123 54.85540771 -0.31074524 C58.76040437 0.29626529 60.91830124 1.73756477 63.99316406 4.17700195 C67.72313373 9.96488592 67.42825398 16.24975556 67.58691406 22.9465332 C67.78800781 24.54561523 67.78800781 24.54561523 67.99316406 26.17700195 C71.51760387 28.52662849 73.02781538 28.42821239 77.20019531 28.45043945 C78.42673828 28.47106445 79.65328125 28.49168945 80.91699219 28.51293945 C83.49765554 28.53886274 86.07840736 28.55716259 88.65917969 28.56762695 C99.22495303 28.76687674 99.22495303 28.76687674 102.69238281 30.77856445 C104.99316406 33.17700195 104.99316406 33.17700195 107.99316406 40.17700195 C107.66316406 51.06700195 107.33316406 61.95700195 106.99316406 73.17700195 C53.53316406 73.17700195 0.07316406 73.17700195 -55.00683594 73.17700195 C-56.00683594 40.17700195 -56.00683594 40.17700195 -52.00683594 32.17700195 C-48.30522756 29.06121803 -45.25522067 28.79233845 -40.49902344 28.7355957 C-39.26539063 28.70916992 -38.03175781 28.68274414 -36.76074219 28.65551758 C-35.48070312 28.64198242 -34.20066406 28.62844727 -32.88183594 28.61450195 C-30.3374346 28.58011815 -27.79312678 28.53754336 -25.24902344 28.4855957 C-24.12351074 28.47326904 -22.99799805 28.46094238 -21.83837891 28.44824219 C-18.80311082 28.38267475 -18.80311082 28.38267475 -16.00683594 26.17700195 C-15.53157742 23.06428858 -15.53157742 23.06428858 -15.50683594 19.48950195 C-15.14758391 12.60736017 -14.56082394 8.11795783 -9.94433594 2.80200195 C-6.56388571 -0.03321436 -4.3566397 0.03848448 0 0 Z " fill="#C2D0DA" transform="translate(191.0068359375,-0.177001953125)"/>
<path d="M0 0 C0.33 0 0.66 0 1 0 C1.09339719 19.48844453 1.16395653 38.97684371 1.20724869 58.46546555 C1.22788333 67.51416246 1.25602108 76.5627204 1.30175781 85.61132812 C1.34159806 93.49712059 1.36742625 101.38281243 1.37635398 109.26870275 C1.38157353 113.44515898 1.39385983 117.62132729 1.42292023 121.79769135 C1.45004508 125.72768586 1.45845105 129.65727352 1.45243073 133.58735275 C1.45353229 135.03054642 1.46150397 136.47375351 1.4768219 137.9168663 C1.49669965 139.88594499 1.48955984 141.85524137 1.48101807 143.82440186 C1.48470524 144.92686626 1.48839241 146.02933067 1.49219131 147.16520309 C0.87340754 150.7291147 -0.08385609 151.89936415 -3 154 C-5.35065842 154.49219131 -5.35065842 154.49219131 -7.99871826 154.48101807 C-9.00550125 154.48651672 -10.01228424 154.49201538 -11.04957581 154.49768066 C-12.69711098 154.47610901 -12.69711098 154.47610901 -14.37792969 154.45410156 C-15.53918869 154.45468567 -16.70044769 154.45526978 -17.89689636 154.45587158 C-21.73885898 154.45308279 -25.58004775 154.42195142 -29.421875 154.390625 C-32.08418085 154.38316544 -34.74644373 154.37727445 -37.40875244 154.37347412 C-43.70217017 154.36104538 -49.99530971 154.32822546 -56.28860497 154.28807616 C-63.45418106 154.24335504 -70.61977049 154.22137061 -77.78545141 154.20129442 C-92.5237765 154.15949254 -107.2618834 154.08914263 -122 154 C-118.78334595 150.72248334 -115.38341514 147.8613707 -111.75 145.0625 C-104.35616135 139.31053569 -97.08409275 133.41714297 -89.83056641 127.48974609 C-88.1683638 126.13701733 -86.49866274 124.79455422 -84.82421875 123.45703125 C-83.42623047 122.33361328 -83.42623047 122.33361328 -82 121.1875 C-80.824375 120.24970703 -80.824375 120.24970703 -79.625 119.29296875 C-72.0329493 112.66122208 -66.55158888 105.77133807 -61.25 97.1875 C-60.55680664 96.0845459 -59.86361328 94.9815918 -59.14941406 93.84521484 C-57.74760347 91.61324026 -56.35007275 89.37857141 -54.95703125 87.14111328 C-52.72538721 83.55923551 -50.46977306 79.99309566 -48.20996094 76.42895508 C-46.27940586 73.38235837 -44.35766546 70.33024386 -42.43554688 67.27832031 C-39.96040424 63.35008374 -37.47989831 59.42523535 -35 55.5 C-32.02215507 50.78596427 -29.04484163 46.07159761 -26.0703125 41.35546875 C-19.94901594 31.65283271 -13.80426363 21.9655547 -7.63134766 12.2956543 C-7.07108887 11.4169165 -6.51083008 10.53817871 -5.93359375 9.6328125 C-5.43915771 8.85824707 -4.94472168 8.08368164 -4.43530273 7.28564453 C-3.38511108 5.61326924 -2.37126401 3.91791875 -1.37915039 2.21044922 C-0.92403076 1.48100098 -0.46891113 0.75155273 0 0 Z " fill="#EAE9E9" transform="translate(367,327)"/>
<path d="M0 0 C0.33 0 0.66 0 1 0 C1.17733178 27.89428675 1.34299703 55.78862167 1.49477577 83.68305969 C1.56552128 96.63493744 1.64008357 109.58677221 1.72363281 122.53857422 C1.79644498 133.82741633 1.86209413 145.1162735 1.91914403 156.40520668 C1.94960122 162.38253059 1.98364366 168.35978555 2.02626419 174.33703613 C2.06627582 179.96427854 2.09670143 185.59149179 2.11981392 191.2188282 C2.12997367 193.28278707 2.14361886 195.34673223 2.16103554 197.41064262 C2.1843221 200.2323854 2.19497171 203.05390991 2.20254517 205.87573242 C2.21712011 207.09560915 2.21712011 207.09560915 2.2319895 208.34012985 C2.22744778 215.30577687 1.60165587 222.03589495 -3.3125 227.375 C-3.88613281 228.02210938 -4.45976562 228.66921875 -5.05078125 229.3359375 C-9.2169972 232.89266695 -13.28393004 233.24748019 -18.6262207 233.22705078 C-19.59291939 233.22748886 -19.59291939 233.22748886 -20.57914734 233.22793579 C-22.69483221 233.22655005 -24.81015842 233.21102507 -26.92578125 233.1953125 C-28.39836942 233.19157967 -29.87096009 233.18873397 -31.34355164 233.18673706 C-35.20857672 233.17912183 -39.07345013 233.15949163 -42.93841553 233.1373291 C-46.88665719 233.11682508 -50.8349235 233.10772562 -54.78320312 233.09765625 C-62.52220437 233.0762436 -70.26108088 233.04213333 -78 233 C-77.401875 232.70609375 -76.80375 232.4121875 -76.1875 232.109375 C-70.63591229 229.29392695 -67.03697704 226.51155093 -64 221 C-62.96215421 216.93391922 -62.7108896 212.86645531 -62.4375 208.6875 C-62.21875 205.34375 -62.21875 205.34375 -62 202 C-61.16750732 201.98541748 -60.33501465 201.97083496 -59.47729492 201.95581055 C-56.38510347 201.8947137 -53.29357918 201.82055444 -50.2019043 201.73754883 C-48.2070937 201.68798681 -46.21192743 201.65348867 -44.21679688 201.61914062 C-42.96318359 201.58369141 -41.70957031 201.54824219 -40.41796875 201.51171875 C-39.26063232 201.48553467 -38.1032959 201.45935059 -36.91088867 201.43237305 C-34.06938101 201.23020155 -34.06938101 201.23020155 -32.33836365 199.84623814 C-30.42112375 197.20145514 -30.64638551 195.2757317 -30.67529297 192.02781677 C-30.67865158 190.7791684 -30.68201019 189.53052002 -30.68547058 188.24403381 C-30.70418966 186.85726676 -30.72310184 185.47050229 -30.7421875 184.08374023 C-30.75117911 182.6248454 -30.75869594 181.16594083 -30.7648468 179.70703125 C-30.78024798 176.56071502 -30.80410352 173.41461301 -30.83383179 170.26840019 C-30.8788842 165.27706911 -30.89259313 160.2859607 -30.8996582 155.29444885 C-30.92315518 141.09837656 -30.96309741 126.90282532 -31.09228516 112.70727539 C-31.16335448 104.86985015 -31.19443325 97.0333077 -31.18199539 89.19555813 C-31.17710985 85.05479911 -31.19198486 80.91633568 -31.25653076 76.77602959 C-31.74249717 44.30968493 -31.74249717 44.30968493 -20.37290955 30.70091057 C-18.14414902 27.93967816 -16.37792449 24.94157948 -14.53125 21.9140625 C-13.18941532 19.81648186 -11.84571489 17.72009338 -10.5 15.625 C-9.81164062 14.54734375 -9.12328125 13.4696875 -8.4140625 12.359375 C-2.4003807 2.97615942 -2.4003807 2.97615942 0 0 Z " fill="#EAB14D" transform="translate(398,279)"/>
<path d="M0 0 C11.37014356 -0.06780776 22.74015256 -0.12283468 34.11045265 -0.15543652 C39.3902806 -0.17108465 44.6699629 -0.19230755 49.94970703 -0.22631836 C55.04605921 -0.25894192 60.14227139 -0.27685943 65.23871994 -0.28463173 C67.18196186 -0.29016983 69.12519621 -0.30098441 71.06837845 -0.31719017 C73.79266093 -0.33900418 76.51636673 -0.34196525 79.24072266 -0.34057617 C80.44266266 -0.35675491 80.44266266 -0.35675491 81.66888428 -0.3732605 C87.31367996 -0.34216754 91.36221737 0.82439296 95.828125 4.5078125 C96.29734375 5.04148437 96.7665625 5.57515625 97.25 6.125 C97.72953125 6.64320312 98.2090625 7.16140625 98.703125 7.6953125 C102.50744541 14.45600238 102.30420607 22.56265246 102.30981445 30.10913086 C102.31802216 31.1836853 102.32622986 32.25823975 102.33468628 33.36535645 C102.35698427 36.8986024 102.36250471 40.43153016 102.36328125 43.96484375 C102.36457566 45.78878253 102.36457566 45.78878253 102.36589622 47.64956856 C102.36693517 54.08946587 102.35252709 60.52914729 102.32788086 66.96899414 C102.31067034 72.26577581 102.32472866 77.56103015 102.36694336 82.85766602 C102.41811687 89.28782985 102.41477175 95.71587376 102.37370872 102.14608955 C102.36684057 104.57901471 102.37826374 107.0120709 102.40935707 109.44480705 C102.58951015 125.02839898 100.89999298 135.66796036 91.32934761 148.22569084 C89.3903024 150.81377664 87.72912193 153.53288304 86.0390625 156.2890625 C84.90277704 158.06881748 83.76482539 159.84751006 82.625 161.625 C81.47105271 163.42949476 80.31740151 165.2341789 79.1640625 167.0390625 C78.36210449 168.29058105 78.36210449 168.29058105 77.54394531 169.56738281 C76.05477463 171.91369791 74.60016572 174.2788424 73.1484375 176.6484375 C72.08496094 178.30746094 72.08496094 178.30746094 71 180 C70.67 180 70.34 180 70 180 C69.99761165 179.2554742 69.99522329 178.51094839 69.99276257 177.7438612 C69.9336699 159.64197293 69.85815682 141.54022169 69.76428509 123.43847942 C69.71928719 114.68466583 69.67988183 105.93089328 69.65356445 97.17700195 C69.63061662 89.54860527 69.59725484 81.92033805 69.55129844 74.29204398 C69.52732263 70.25154265 69.50862252 66.21116988 69.50238609 62.17059898 C69.4963548 58.36942651 69.47642661 54.56858317 69.44572449 50.76753235 C69.4369127 49.3707285 69.43322815 47.97388169 69.43499184 46.57705116 C69.4366371 44.67317121 69.41822615 42.76930511 69.39872742 40.86552429 C69.39411845 39.79900981 69.38950949 38.73249533 69.38476086 37.63366222 C69.20676871 34.98199746 69.20676871 34.98199746 67.65422821 33.1583252 C65.05581031 31.33885863 62.73621937 31.5974878 59.60083008 31.56762695 C58.95665634 31.5574353 58.3124826 31.54724365 57.64878845 31.53674316 C55.52228131 31.50657961 53.39622434 31.49734269 51.26953125 31.48828125 C49.79406737 31.47143694 48.31861787 31.45328703 46.84318542 31.43388367 C42.96180716 31.38635007 39.08048715 31.35656274 35.19891357 31.33044434 C30.54065955 31.29541718 25.88262933 31.23839502 21.22455597 31.18505096 C14.14973213 31.10649752 7.07520202 31.05592283 0 31 C0 20.77 0 10.54 0 0 Z " fill="#EAB14D" transform="translate(298,42)"/>
<path d="M0 0 C1.95243874 -0.01902626 1.95243874 -0.01902626 3.94432068 -0.03843689 C5.3574947 -0.03638525 6.77066764 -0.03339706 8.18383789 -0.02954102 C9.64205671 -0.03410538 11.10027338 -0.03941171 12.55848694 -0.04542542 C15.61069492 -0.0543468 18.66264112 -0.05194484 21.71484375 -0.04199219 C25.61666144 -0.03050579 29.51757365 -0.05071269 33.41927242 -0.07990932 C36.4297098 -0.09830011 39.43993136 -0.09797319 42.45041084 -0.0922718 C43.88845655 -0.09211893 45.32651719 -0.0981355 46.7645092 -0.11056328 C48.77915311 -0.12552227 50.79394638 -0.11214094 52.80859375 -0.09765625 C53.95267197 -0.09749008 55.09675018 -0.09732391 56.27549744 -0.09715271 C61.219067 0.67871907 64.2417566 2.85034824 67.31874084 6.74586487 C68.71806999 9.97965673 68.85640255 12.41308615 68.87304688 15.93505859 C68.88573105 17.23668442 68.89841522 18.53831024 68.91148376 19.87937927 C68.90943213 21.2925533 68.90644394 22.70572623 68.90258789 24.11889648 C68.90715225 25.5771153 68.91245859 27.03533197 68.91847229 28.49354553 C68.92739368 31.54575351 68.92499172 34.59769971 68.91503906 37.64990234 C68.90355266 41.55172003 68.92375957 45.45263225 68.9529562 49.35433102 C68.97134699 52.3647684 68.97102006 55.37498995 68.96531868 58.38546944 C68.9651658 59.82351514 68.97118237 61.26157579 68.98361015 62.69956779 C68.99856915 64.7142117 68.98518782 66.72900497 68.97070312 68.74365234 C68.97053696 69.88773056 68.97037079 71.03180878 68.97019958 72.21055603 C68.1943278 77.15412559 66.02269863 80.17681519 62.12718201 83.25379944 C58.89339014 84.65312858 56.45996073 84.79146115 52.93798828 84.80810547 C51.63636246 84.82078964 50.33473663 84.83347382 48.9936676 84.84654236 C47.58049358 84.84449072 46.16732064 84.84150253 44.75415039 84.83764648 C43.29593157 84.84221085 41.8377149 84.84751718 40.37950134 84.85353088 C37.32729336 84.86245227 34.27534716 84.86005031 31.22314453 84.85009766 C27.32132684 84.83861126 23.42041463 84.85881816 19.51871586 84.88801479 C16.50827848 84.90640558 13.49805692 84.90607866 10.48757744 84.90037727 C9.04953173 84.9002244 7.61147109 84.90624097 6.17347908 84.91866875 C4.15883517 84.93362774 2.14404191 84.92024641 0.12939453 84.90576172 C-1.01468369 84.90559555 -2.1587619 84.90542938 -3.33750916 84.90525818 C-8.28107872 84.1293864 -11.30376832 81.95775723 -14.38075256 78.0622406 C-15.78008171 74.82844874 -15.91841427 72.39501932 -15.93505859 68.87304688 C-15.94774277 67.57142105 -15.96042694 66.26979523 -15.97349548 64.9287262 C-15.97144385 63.51555217 -15.96845566 62.10237924 -15.96459961 60.68920898 C-15.96916397 59.23099017 -15.97447031 57.7727735 -15.98048401 56.31455994 C-15.98940539 53.26235196 -15.98700344 50.21040576 -15.97705078 47.15820312 C-15.96556438 43.25638543 -15.98577128 39.35547322 -16.01496792 35.45377445 C-16.03335871 32.44333707 -16.03303178 29.43311552 -16.0273304 26.42263603 C-16.02717752 24.98459033 -16.03319409 23.54652968 -16.04562187 22.10853767 C-16.06058087 20.09389377 -16.04719954 18.0791005 -16.03271484 16.06445312 C-16.03254868 14.92037491 -16.03238251 13.77629669 -16.0322113 12.59754944 C-15.25633952 7.65397988 -13.08471035 4.63129027 -9.18919373 1.55430603 C-5.95540186 0.15497689 -3.52197245 0.01664432 0 0 Z " fill="#68B59E" transform="translate(120.531005859375,234.595947265625)"/>
<path d="M0 0 C1.92240761 -0.01418472 1.92240761 -0.01418472 3.88365173 -0.02865601 C5.27473257 -0.0232854 6.66581057 -0.01713223 8.05688477 -0.01025391 C9.49268237 -0.0122766 10.92847897 -0.01518966 12.36427307 -0.01895142 C15.36941333 -0.02336706 18.37428552 -0.01696947 21.37939453 -0.00292969 C25.2205542 0.01414665 29.06108423 0.00432659 32.90222073 -0.01364708 C35.86632478 -0.02451888 38.83028107 -0.02102284 41.79438972 -0.0132637 C43.21009458 -0.01127026 44.6258131 -0.01369078 46.041502 -0.02070236 C48.02506102 -0.02837024 50.00866739 -0.01459974 51.9921875 0 C53.11850082 0.00238678 54.24481415 0.00477356 55.40525818 0.00723267 C60.57212364 0.63100123 63.53998939 2.18020042 66.90344238 6.16040039 C68.75771158 9.77169789 69.06711048 11.99584368 69.07836914 16.03271484 C69.09097778 17.33426514 69.10358643 18.63581543 69.11657715 19.97680664 C69.10941689 21.38477117 69.10121279 22.79273073 69.09204102 24.20068359 C69.09473866 25.65747333 69.09862335 27.11426131 69.1036377 28.57104492 C69.10952006 31.61736268 69.10101131 34.66320981 69.08227539 37.70947266 C69.05948572 41.60345423 69.07261571 45.49633289 69.09656525 49.39027405 C69.11105793 52.39644599 69.10640155 55.40235883 69.09605408 58.40853882 C69.09339633 59.84378186 69.09662292 61.27904886 69.10597229 62.71426392 C69.11619316 64.72405513 69.09783814 66.73392944 69.07836914 68.74365234 C69.07518677 69.88471436 69.07200439 71.02577637 69.06872559 72.20141602 C68.42903275 76.21483135 67.17807433 78.29097635 64.56079102 81.38818359 C60.32389097 84.14731703 57.01526624 84.76815198 52.00805664 84.79223633 C50.7265271 84.8049205 49.44499756 84.81760468 48.12463379 84.83067322 C46.73876788 84.82862173 45.35290308 84.82563366 43.96704102 84.82177734 C42.53267165 84.82634325 41.09830447 84.83165004 39.66394043 84.83766174 C36.66478561 84.84657381 33.66589736 84.84419112 30.66674805 84.83422852 C26.83333471 84.82273204 23.00084164 84.84296912 19.16754913 84.87214565 C16.20772512 84.89053566 13.24812062 84.89020987 10.28825378 84.88450813 C8.87532763 84.88435531 7.46238624 84.89036766 6.04951477 84.90279961 C4.07090353 84.9177605 2.09214018 84.90437628 0.11352539 84.88989258 C-1.57142029 84.88964333 -1.57142029 84.88964333 -3.29040527 84.88938904 C-8.204528 84.10719196 -11.23000733 81.91905434 -14.28895569 78.04637146 C-15.68828483 74.81257959 -15.8266174 72.37915018 -15.84326172 68.85717773 C-15.85594589 67.55555191 -15.86863007 66.25392609 -15.88169861 64.91285706 C-15.87964697 63.49968303 -15.87665878 62.0865101 -15.87280273 60.67333984 C-15.8773671 59.21512103 -15.88267343 57.75690436 -15.88868713 56.2986908 C-15.89760852 53.24648282 -15.89520656 50.19453662 -15.88525391 47.14233398 C-15.87376751 43.24051629 -15.89397441 39.33960408 -15.92317104 35.43790531 C-15.94156183 32.42746793 -15.94123491 29.41724638 -15.93553352 26.40676689 C-15.93538065 24.96872119 -15.94139722 23.53066054 -15.953825 22.09266853 C-15.96878399 20.07802463 -15.95540266 18.06323136 -15.94091797 16.04858398 C-15.9407518 14.90450577 -15.94058563 13.76042755 -15.94041443 12.5816803 C-15.16417175 7.6357475 -12.99196922 4.61233382 -9.09165955 1.53744507 C-5.88378475 0.14752777 -3.49401946 0.00740944 0 0 Z " fill="#68B59E" transform="translate(120.439208984375,110.61181640625)"/>
<path d="M0 0 C1.91756607 -0.01902626 1.91756607 -0.01902626 3.87387085 -0.03843689 C5.26178144 -0.03638502 6.64969091 -0.03339664 8.03759766 -0.02954102 C9.47100064 -0.03410599 10.90440143 -0.03941251 12.33779907 -0.04542542 C15.33873395 -0.05434715 18.33940259 -0.05194516 21.34033203 -0.04199219 C25.17255573 -0.03051634 29.00385605 -0.05069623 32.83595848 -0.07990932 C35.79582491 -0.09832214 38.75547225 -0.09796865 41.71538162 -0.0922718 C43.12748126 -0.09211914 44.53959628 -0.09811801 45.95164108 -0.11056328 C59.97240228 -0.21671574 59.97240228 -0.21671574 65.57666016 4.40405273 C68.45933078 8.31319575 68.95795257 11.11892776 68.98071289 15.93505859 C68.99339706 17.23668442 69.00608124 18.53831024 69.01914978 19.87937927 C69.01709814 21.2925533 69.01410995 22.70572623 69.01025391 24.11889648 C69.01481827 25.5771153 69.0201246 27.03533197 69.02613831 28.49354553 C69.03505969 31.54575351 69.03265773 34.59769971 69.02270508 37.64990234 C69.01121868 41.55172003 69.03142558 45.45263225 69.06062222 49.35433102 C69.079013 52.3647684 69.07868608 55.37498995 69.0729847 58.38546944 C69.07283182 59.82351514 69.07884839 61.26157579 69.09127617 62.69956779 C69.10623516 64.7142117 69.09285383 66.72900497 69.07836914 68.74365234 C69.07820297 69.88773056 69.0780368 71.03180878 69.0778656 72.21055603 C68.4466774 76.23225504 67.19939154 78.30282181 64.57666016 81.40405273 C60.33976011 84.16318618 57.03113538 84.78402112 52.02392578 84.80810547 C50.74239624 84.82078964 49.4608667 84.83347382 48.14050293 84.84654236 C46.75463702 84.84449087 45.36877222 84.8415028 43.98291016 84.83764648 C42.54854079 84.84221239 41.11417361 84.84751918 39.67980957 84.85353088 C36.68065475 84.86244295 33.6817665 84.86006026 30.68261719 84.85009766 C26.84920385 84.83860118 23.01671078 84.85883826 19.18341827 84.88801479 C16.22359426 84.9064048 13.26398976 84.90607901 10.30412292 84.90037727 C8.89119677 84.90022445 7.47825538 84.9062368 6.06538391 84.91866875 C4.08677267 84.93362964 2.10800932 84.92024542 0.12939453 84.90576172 C-1.55555115 84.90551247 -1.55555115 84.90551247 -3.27453613 84.90525818 C-8.18865886 84.1230611 -11.21413819 81.93492348 -14.27308655 78.0622406 C-15.67241569 74.82844874 -15.81074826 72.39501932 -15.82739258 68.87304688 C-15.84007675 67.57142105 -15.85276093 66.26979523 -15.86582947 64.9287262 C-15.86377783 63.51555217 -15.86078964 62.10237924 -15.85693359 60.68920898 C-15.86149796 59.23099017 -15.86680429 57.7727735 -15.87281799 56.31455994 C-15.88173938 53.26235196 -15.87933742 50.21040576 -15.86938477 47.15820312 C-15.85789837 43.25638543 -15.87810527 39.35547322 -15.9073019 35.45377445 C-15.92569269 32.44333707 -15.92536577 29.43311552 -15.91966438 26.42263603 C-15.91951151 24.98459033 -15.92552807 23.54652968 -15.93795586 22.10853767 C-15.95291485 20.09389377 -15.93953352 18.0791005 -15.92504883 16.06445312 C-15.92488266 14.92037491 -15.92471649 13.77629669 -15.92454529 12.59754944 C-15.14829963 7.65159768 -12.97671999 4.62751849 -9.07479858 1.55430603 C-5.87498171 0.16616453 -3.4859229 0.01677894 0 0 Z " fill="#68B59E" transform="translate(120.42333984375,358.595947265625)"/>
<path d="M0 0 C5.80042899 0.71478374 8.47306947 2.46899419 13 6 C12.53982145 11.37231698 9.55862392 15.23786545 6.6875 19.625 C5.58703546 21.33580622 4.48678082 23.04674746 3.38671875 24.7578125 C2.82259277 25.62954102 2.2584668 26.50126953 1.67724609 27.39941406 C-0.91195518 31.41399513 -3.45489603 35.45737992 -6 39.5 C-7.00236517 41.08739052 -8.00496994 42.67462977 -9.0078125 44.26171875 C-10.98279978 47.38867486 -12.95668286 50.51632383 -14.9296875 53.64453125 C-20.85953993 63.04397818 -26.813845 72.4274846 -32.78417969 81.80126953 C-38.54695587 90.8522928 -44.27637549 99.92418577 -50 109 C-56.90475588 119.94870594 -63.83049386 130.88356411 -70.78417969 141.80126953 C-76.05446637 150.0787882 -81.29733903 158.37340293 -86.53222656 166.67333984 C-89.52098573 171.41101032 -92.51328922 176.14644325 -95.50488281 180.88232422 C-97.98094327 184.80235106 -100.4562335 188.72285919 -102.9296875 192.64453125 C-109.45775104 202.99265658 -115.99702309 213.33360384 -122.58984375 223.640625 C-124.82133889 227.13274129 -127.01964039 230.64233222 -129.19140625 234.171875 C-129.68825928 234.96835449 -130.1851123 235.76483398 -130.69702148 236.58544922 C-131.62592363 238.0748054 -132.54404335 239.57095955 -133.44946289 241.07470703 C-134.6953125 243.0546875 -134.6953125 243.0546875 -137 246 C-141.39594806 246 -142.63443662 245.28351372 -146.25 243 C-147.14203125 242.443125 -148.0340625 241.88625 -148.953125 241.3125 C-149.62859375 240.879375 -150.3040625 240.44625 -151 240 C-149.30219302 234.98647587 -146.47019409 230.79405461 -143.625 226.375 C-142.5337441 224.6641327 -141.44260139 222.9531932 -140.3515625 221.2421875 C-139.5147998 219.93459473 -139.5147998 219.93459473 -138.66113281 218.60058594 C-136.09122429 214.57726647 -133.54616611 210.53836918 -131 206.5 C-130.00013493 204.91658146 -129.00013452 203.33324837 -128 201.75 C-127.505 200.96625 -127.01 200.1825 -126.5 199.375 C-125 197 -123.5 194.625 -122 192.25 C-121.50516113 191.4664917 -121.01032227 190.6829834 -120.50048828 189.87573242 C-119.49890965 188.28992675 -118.49728192 186.70415209 -117.49560547 185.1184082 C-115.01935816 181.19815243 -112.54392299 177.27738893 -110.0703125 173.35546875 C-104.13905179 163.95378954 -98.18364471 154.56785392 -92.21142578 145.19213867 C-88.46139075 139.30283923 -84.72452421 133.40546218 -81 127.5 C-76.68348424 120.6558988 -72.34721532 113.82464147 -68 107 C-61.64100507 97.016117 -55.31419122 87.01226172 -49 77 C-42.09611536 66.05267556 -35.17249862 55.11839213 -28.21801758 44.203125 C-24.39995337 38.20805275 -20.6008361 32.20139064 -16.8125 26.1875 C-11.28165301 17.41056816 -5.65652209 8.69634597 0 0 Z " fill="#FA636F" transform="translate(416,184)"/>
<path d="M0 0 C3.57222923 1.92488779 6.93026797 4.11617414 10.296875 6.37890625 C11.43382812 7.08853516 11.43382812 7.08853516 12.59375 7.8125 C17.50809119 11.01522236 20.4480433 14.83241116 22.296875 20.37890625 C23.39766908 30.18851429 21.67560742 36.2639908 16.296875 44.37890625 C15.48646805 45.64337099 14.67800283 46.90908151 13.87109375 48.17578125 C12.04100256 51.03432834 10.19261112 53.87996286 8.33203125 56.71875 C5.03622703 61.75843483 1.81904651 66.84656787 -1.390625 71.94140625 C-1.91994629 72.78123047 -2.44926758 73.62105469 -2.99462891 74.48632812 C-4.23159119 76.45002116 -5.46780871 78.41417749 -6.703125 80.37890625 C-14.81355179 76.22802931 -22.37657294 71.43017438 -29.98071289 66.42358398 C-34.12573383 63.69672981 -38.27906854 61.0009355 -42.515625 58.41796875 C-43.25594971 57.96583008 -43.99627441 57.51369141 -44.7590332 57.04785156 C-46.14905621 56.20406254 -47.54326623 55.36712137 -48.94213867 54.53808594 C-53.59352481 51.70770683 -53.59352481 51.70770683 -54.703125 48.37890625 C-53.72192383 46.3203125 -53.72192383 46.3203125 -52.16015625 43.94140625 C-51.5863623 43.05509521 -51.01256836 42.16878418 -50.42138672 41.25561523 C-49.79248535 40.30630127 -49.16358398 39.3569873 -48.515625 38.37890625 C-47.22211505 36.39097704 -45.92915664 34.40268887 -44.63671875 32.4140625 C-43.97913574 31.40875488 -43.32155273 30.40344727 -42.64404297 29.36767578 C-39.22939505 24.10954751 -35.9226411 18.78336401 -32.61254883 13.45898438 C-25.1136827 1.50729497 -14.84428914 -7.16902841 0 0 Z " fill="#8C9BA6" transform="translate(454.703125,121.62109375)"/>
<path d="M0 0 C10.17209824 -1.26565278 18.78923849 2.46761111 27.12890625 8.12109375 C38.40211495 16.97094603 38.40211495 16.97094603 41 23 C40.86916445 26.12067004 40.46029213 27.52405168 38.27734375 29.78125 C37.11912109 30.63203125 37.11912109 30.63203125 35.9375 31.5 C35.03128906 32.18578125 34.12507813 32.8715625 33.19140625 33.578125 C32.68367676 33.95904297 32.17594727 34.33996094 31.65283203 34.73242188 C29.18180378 36.62748519 26.78890476 38.61411435 24.38647461 40.5949707 C20.94702307 43.42493089 17.47574175 46.21480822 14 49 C13.278125 49.58023926 12.55625 50.16047852 11.8125 50.75830078 C9.67961552 52.46032355 7.5305766 54.13935 5.375 55.8125 C4.72450684 56.33424805 4.07401367 56.85599609 3.40380859 57.39355469 C0.34002313 59.73733863 -1.41732701 60.92519275 -5.31640625 61.42578125 C-8 61 -8 61 -10.3125 59.375 C-12.65111574 56.08361488 -13.34272316 53.11689833 -12.68774414 49.07128906 C-12.14146737 46.83998078 -11.52237376 44.64159891 -10.875 42.4375 C-10.40382524 40.74937282 -9.93516781 39.06054143 -9.46875 37.37109375 C-9.22511719 36.49437012 -8.98148438 35.61764648 -8.73046875 34.71435547 C-7.50694012 30.16783429 -6.44384904 25.58489731 -5.375 21 C-3.72259393 13.95881065 -2.00247728 6.95168943 0 0 Z " fill="#7D8C96" transform="translate(247,420)"/>
<path d="M0 0 C0.82989944 -0.0071553 1.65979889 -0.01431061 2.5148468 -0.02168274 C3.87546989 -0.02571609 3.87546989 -0.02571609 5.26358032 -0.02983093 C6.22159042 -0.03640213 7.17960052 -0.04297333 8.16664124 -0.04974365 C11.34039384 -0.06947265 14.51409918 -0.08113708 17.68789673 -0.09111023 C19.31274427 -0.09722352 19.31274427 -0.09722352 20.97041702 -0.10346031 C26.70143697 -0.12431722 32.43243298 -0.13862181 38.16348267 -0.147995 C44.08757322 -0.15907148 50.0112894 -0.193487 55.93524742 -0.23316669 C60.48712879 -0.25928479 65.03892019 -0.26768246 69.5908699 -0.27127647 C71.77497517 -0.27615319 73.95907614 -0.28779786 76.14310837 -0.30631447 C79.19789274 -0.33060799 82.2516981 -0.32975885 85.30654907 -0.32279968 C86.20958267 -0.33560974 87.11261627 -0.3484198 88.04301453 -0.36161804 C92.18320013 -0.32721069 94.35776595 -0.19678276 97.95245361 2.02420044 C100.26251719 4.52378401 100.91445923 5.7440331 100.91445923 9.14717102 C99.29290294 12.63351703 98.14992631 13.99019297 94.91445923 16.14717102 C92.99754524 16.40443993 92.99754524 16.40443993 90.79095459 16.41459656 C89.53348419 16.42739151 89.53348419 16.42739151 88.25061035 16.44044495 C87.33417755 16.43953857 86.41774475 16.4386322 85.47354126 16.43769836 C84.50577759 16.44441559 83.53801392 16.45113281 82.54092407 16.45805359 C79.33465471 16.47708585 76.1285941 16.48096045 72.92227173 16.48310852 C70.69651197 16.48953289 68.47075307 16.49626098 66.24499512 16.50328064 C61.57604006 16.51526655 56.90715906 16.51896012 52.2381897 16.51777649 C46.25353825 16.51757325 40.26936141 16.5448753 34.28482246 16.57932091 C29.68660295 16.60155174 25.08849832 16.60561519 20.49023056 16.60455704 C18.28380574 16.60691875 16.07737802 16.61577423 13.87100601 16.63122177 C10.78505418 16.65080376 7.70013449 16.64507393 4.61416626 16.63301086 C3.70178192 16.64424988 2.78939758 16.65548889 1.84936523 16.66706848 C-2.33488804 16.6254766 -4.52440383 16.49513295 -8.15466309 14.2440033 C-10.08554077 12.14717102 -10.08554077 12.14717102 -10.67929077 10.11201477 C-10.426752 4.65086378 -10.426752 4.65086378 -8.77304077 2.20967102 C-5.86684794 0.3798459 -3.34412861 0.01982666 0 0 Z " fill="#DDEAFA" transform="translate(230.08554077148438,128.8528289794922)"/>
<path d="M0 0 C8.90920845 4.56043715 17.20615503 9.91314184 25.56152344 15.40136719 C30.05197008 18.3452443 34.55895924 21.26371219 39.0625 24.1875 C42.04198835 26.12450554 45.02104696 28.06217131 48 30 C43.45151522 38.65454863 38.36281627 46.8366019 33 55 C24.86395798 50.91331834 17.31746436 46.04528476 9.72241211 41.04467773 C5.57739117 38.31782356 1.42405646 35.62202925 -2.8125 33.0390625 C-3.55282471 32.58692383 -4.29314941 32.13478516 -5.0559082 31.66894531 C-6.44593121 30.82515629 -7.84014123 29.98821512 -9.23901367 29.15917969 C-13.89039981 26.32880058 -13.89039981 26.32880058 -15 23 C-13.84423828 20.65576172 -13.84423828 20.65576172 -12.0703125 17.9296875 C-11.43996094 16.95128906 -10.80960937 15.97289062 -10.16015625 14.96484375 C-9.48855469 13.94519531 -8.81695312 12.92554688 -8.125 11.875 C-7.46113281 10.84761719 -6.79726563 9.82023438 -6.11328125 8.76171875 C-1.22462406 1.22462406 -1.22462406 1.22462406 0 0 Z " fill="#C8E1E6" transform="translate(415,147)"/>
<path d="M0 0 C0.10150385 6.60183567 0.17150894 13.20346976 0.21972656 19.8059082 C0.2398294 22.05142741 0.26711605 24.29689435 0.30175781 26.54223633 C0.3503331 29.7717784 0.37298237 33.00062775 0.390625 36.23046875 C0.41127014 37.23272995 0.43191528 38.23499115 0.45318604 39.2676239 C0.45447998 43.29604351 0.24633363 46.37286264 -1.234375 50.14257812 C-5.96013859 53.31644901 -11.09553376 52.60710596 -16.640625 52.48828125 C-17.87794373 52.48120651 -19.11526245 52.47413177 -20.39007568 52.46684265 C-23.67197726 52.44360174 -26.95264431 52.39871955 -30.23413086 52.34332275 C-33.58565901 52.2920777 -36.93724022 52.26974425 -40.2890625 52.24414062 C-46.85985763 52.18899735 -53.42982786 52.10531265 -60 52 C-56.78334595 48.72248334 -53.38341514 45.8613707 -49.75 43.0625 C-42.35616135 37.31053569 -35.08409275 31.41714297 -27.83056641 25.48974609 C-26.1683638 24.13701733 -24.49866274 22.79455422 -22.82421875 21.45703125 C-15.19672001 15.3276028 -8.26336989 9.29992943 -3 1 C-1 0 -1 0 0 0 Z " fill="#F4F4F4" transform="translate(305,429)"/>
<path d="M0 0 C0.66569504 -0.00861557 1.33139008 -0.01723114 2.01725769 -0.02610779 C4.20656785 -0.04871652 6.39459274 -0.04203997 8.58398438 -0.03295898 C10.11186095 -0.03819658 11.63973428 -0.04447356 13.16760254 -0.05174255 C16.36530809 -0.06213701 19.56256837 -0.057599 22.76025391 -0.04296875 C26.85291904 -0.02577396 30.94418114 -0.04928775 35.03668976 -0.08445835 C38.19038143 -0.10644459 41.34373791 -0.10498823 44.4974823 -0.09669304 C46.00613444 -0.09587432 47.51481138 -0.10272259 49.02339172 -0.11746407 C51.13495548 -0.13493694 53.24400501 -0.12035157 55.35546875 -0.09765625 C56.55506226 -0.09669449 57.75465576 -0.09573273 58.99060059 -0.09474182 C63.11721337 0.71862005 64.6365618 2.24042823 67.17773438 5.53344727 C67.17773438 9.19088595 66.99081907 11.47290201 64.74023438 14.40844727 C61.38278637 16.82580983 58.8920753 16.67645406 54.7878418 16.71044922 C54.13233841 16.71702042 53.47683502 16.72359161 52.8014679 16.73036194 C50.62871183 16.75009782 48.45602492 16.76175843 46.28320312 16.77172852 C45.16999412 16.77784181 45.16999412 16.77784181 44.03429604 16.7840786 C40.10579328 16.80494117 36.17732547 16.81924171 32.2487793 16.82861328 C28.19329315 16.83967471 24.13835616 16.87407029 20.08306408 16.91378498 C16.96290576 16.93994602 13.84287835 16.94830464 10.72262001 16.95189476 C9.22790127 16.95676257 7.73318844 16.96838225 6.23857689 16.98693275 C4.14388061 17.0113139 2.05060564 17.01036215 -0.04418945 17.00341797 C-1.83050529 17.01221733 -1.83050529 17.01221733 -3.65290833 17.02119446 C-7.45566841 16.43596995 -9.11339808 15.21385937 -11.82226562 12.53344727 C-12.48632812 10.53344727 -12.48632812 10.53344727 -12.44726562 8.53344727 C-12.46015625 7.87344727 -12.47304687 7.21344727 -12.48632812 6.53344727 C-10.57323505 0.77166107 -5.36521102 0.02772329 0 0 Z " fill="#DDEAFA" transform="translate(231.822265625,252.466552734375)"/>
<path d="M0 0 C3.465 -0.061875 6.93 -0.12375 10.5 -0.1875 C12.11358398 -0.22846802 12.11358398 -0.22846802 13.75976562 -0.27026367 C20.62115003 -0.32912979 26.45646403 0.17474835 32.0234375 4.61328125 C32.46945312 5.17402344 32.91546875 5.73476563 33.375 6.3125 C33.83648437 6.86550781 34.29796875 7.41851562 34.7734375 7.98828125 C39.46861186 15.68896531 38 21.52077007 38 31 C25.46 31 12.92 31 0 31 C0 20.77 0 10.54 0 0 Z " fill="#FEC150" transform="translate(298,42)"/>
<path d="M0 0 C3.83703745 0.8687632 5.18900637 1.43734994 7.3125 4.75 C8.11030795 9.61106242 7.2525018 12.30563618 4.53125 16.23828125 C3.30915887 17.85968762 2.06866532 19.4673467 0.8125 21.0625 C0.1733667 21.899021 -0.4657666 22.73554199 -1.12426758 23.59741211 C-2.96270399 25.99453189 -4.82246263 28.37355609 -6.6875 30.75 C-7.55701032 31.87942324 -8.42566232 33.00950848 -9.29296875 34.140625 C-15.57675428 42.20461994 -15.57675428 42.20461994 -19.66796875 43.26171875 C-23.46959474 43.56450312 -25.77583771 43.46677796 -28.84375 41.0546875 C-30.96298107 38.71538243 -32.8387937 36.30795841 -34.6875 33.75 C-35.29207031 32.96109375 -35.89664063 32.1721875 -36.51953125 31.359375 C-38.9126116 28.06398566 -40.52672751 25.51001541 -41.375 21.5 C-40.39701714 17.58806856 -38.97367039 16.05731113 -35.6875 13.75 C-32.25 13.4375 -32.25 13.4375 -28.6875 14.75 C-26.86641956 16.73738916 -25.40399435 18.76730059 -23.94921875 21.03515625 C-23.53285156 21.60105469 -23.11648437 22.16695313 -22.6875 22.75 C-22.0275 22.75 -21.3675 22.75 -20.6875 22.75 C-19.0465822 20.614107 -17.51396785 18.47319121 -16 16.25 C-5.34179716 1.08646722 -5.34179716 1.08646722 0 0 Z " fill="#F3F7F7" transform="translate(163.6875,379.25)"/>
<path d="M0 0 C3.4375 0.5625 3.4375 0.5625 5.875 2.1875 C7.96410853 5.36294497 7.925835 6.78340303 7.4375 10.5625 C5.93232384 13.46450086 4.02366813 16.01613653 2.0625 18.625 C1.52173828 19.36435791 0.98097656 20.10371582 0.42382812 20.86547852 C-1.22434691 23.10853267 -2.89258146 25.33560922 -4.5625 27.5625 C-5.5241434 28.8718777 -6.48512446 30.18174219 -7.4453125 31.4921875 C-14.65696866 41.1868675 -14.65696866 41.1868675 -18.5625 42.5625 C-22.96144848 43.13273406 -24.85596753 43.07728636 -28.484375 40.43359375 C-31.62341618 37.66890212 -34.06111499 34.6146675 -36.4375 31.1875 C-36.8396875 30.64867187 -37.241875 30.10984375 -37.65625 29.5546875 C-40.52175806 25.46110456 -41.11000998 22.49604101 -40.5625 17.5625 C-38.9375 15.125 -38.9375 15.125 -36.5625 13.5625 C-32.73948487 12.91177402 -31.13801462 13.18774629 -27.875 15.3125 C-25.82328684 17.30876145 -24.09228876 19.14704406 -22.5625 21.5625 C-22.5625 22.2225 -22.5625 22.8825 -22.5625 23.5625 C-21.9025 23.5625 -21.2425 23.5625 -20.5625 23.5625 C-20.33175781 23.04558594 -20.10101563 22.52867187 -19.86328125 21.99609375 C-18.09213329 18.68250462 -15.93209552 15.67479183 -13.75 12.625 C-13.32396484 12.01720703 -12.89792969 11.40941406 -12.45898438 10.78320312 C-5.37516595 0.84871041 -5.37516595 0.84871041 0 0 Z " fill="#F3F7F7" transform="translate(163.5625,258.4375)"/>
<path d="M0 0 C3.83703745 0.8687632 5.18900637 1.43734994 7.3125 4.75 C8.11030795 9.61106242 7.2525018 12.30563618 4.53125 16.23828125 C3.30915887 17.85968762 2.06866532 19.4673467 0.8125 21.0625 C0.1733667 21.899021 -0.4657666 22.73554199 -1.12426758 23.59741211 C-2.96270399 25.99453189 -4.82246263 28.37355609 -6.6875 30.75 C-7.55701032 31.87942324 -8.42566232 33.00950848 -9.29296875 34.140625 C-15.80627991 42.49917065 -15.80627991 42.49917065 -21.4375 43.25 C-25.6624152 43.09580601 -27.87994172 41.76830133 -30.87890625 38.859375 C-40.35007269 27.81309017 -40.35007269 27.81309017 -41.0390625 21.55859375 C-40.6875 18.75 -40.6875 18.75 -38.625 15.8125 C-35.6875 13.75 -35.6875 13.75 -32.25 13.4375 C-27.81558892 15.0712304 -26.44278009 17.14793322 -23.94921875 21.03515625 C-23.53285156 21.60105469 -23.11648437 22.16695312 -22.6875 22.75 C-22.0275 22.75 -21.3675 22.75 -20.6875 22.75 C-19.0465822 20.614107 -17.51396785 18.47319121 -16 16.25 C-5.34179716 1.08646722 -5.34179716 1.08646722 0 0 Z " fill="#F3F7F7" transform="translate(163.6875,131.25)"/>
<path d="M0 0 C1.10802475 -0.01591187 2.2160495 -0.03182373 3.35765076 -0.04821777 C4.55455032 -0.04841919 5.75144989 -0.04862061 6.98461914 -0.04882812 C8.21386612 -0.05644165 9.4431131 -0.06405518 10.70960999 -0.07189941 C13.97807 -0.08548478 17.24612205 -0.08330007 20.5145874 -0.07751465 C23.83358134 -0.08175772 27.15217953 -0.12910625 30.47094727 -0.16601562 C32.99633387 -0.17122259 35.52172717 -0.17391082 38.04711914 -0.17382812 C39.83943214 -0.19842102 39.83943214 -0.19842102 41.66795349 -0.22351074 C49.90154365 -0.15455951 49.90154365 -0.15455951 53.36181641 2.765625 C54.95894736 6.23912125 54.88008684 7.83185491 53.58227539 11.41992188 C51.35634584 14.049833 49.54133423 15.27504214 46.10958862 15.79345703 C42.94660172 15.95074164 39.80772906 15.97404684 36.64086914 15.95117188 C35.48104019 15.95499878 34.32121124 15.95882568 33.12623596 15.96276855 C30.6777357 15.96548727 28.22920638 15.95812906 25.78076172 15.94140625 C22.02969801 15.91997856 18.28054557 15.94122129 14.52954102 15.96679688 C12.14997949 15.96415397 9.77041916 15.95902978 7.39086914 15.95117188 C5.70639931 15.96331726 5.70639931 15.96331726 3.98789978 15.97570801 C2.42091087 15.95679504 2.42091087 15.95679504 0.82226562 15.9375 C-0.09531021 15.93431763 -1.01288605 15.93113525 -1.95826721 15.92785645 C-5.16978168 15.26460478 -6.3769753 13.92948728 -8.41772461 11.41992188 C-9.12654764 8.51207306 -8.7574425 6.47738287 -8.41772461 3.41992188 C-6.09663721 0.06180105 -3.92810588 0.03388097 0 0 Z " fill="#DDEAFA" transform="translate(228.417724609375,161.580078125)"/>
<path d="M0 0 C1.10802475 -0.01591187 2.2160495 -0.03182373 3.35765076 -0.04821777 C4.55455032 -0.04841919 5.75144989 -0.04862061 6.98461914 -0.04882812 C8.21386612 -0.05644165 9.4431131 -0.06405518 10.70960999 -0.07189941 C13.97807 -0.08548478 17.24612205 -0.08330007 20.5145874 -0.07751465 C23.83358134 -0.08175772 27.15217953 -0.12910625 30.47094727 -0.16601562 C32.99633387 -0.17122259 35.52172717 -0.17391082 38.04711914 -0.17382812 C39.83943214 -0.19842102 39.83943214 -0.19842102 41.66795349 -0.22351074 C49.90154365 -0.15455951 49.90154365 -0.15455951 53.36181641 2.765625 C54.95894736 6.23912125 54.88008684 7.83185491 53.58227539 11.41992188 C51.36438336 14.0176869 49.56007165 15.26943115 46.15527344 15.79345703 C43.06153992 15.95066165 39.99246367 15.97405783 36.89477539 15.95117188 C35.75951416 15.95499878 34.62425293 15.95882568 33.45458984 15.96276855 C31.05736401 15.96548725 28.6601085 15.95812919 26.26293945 15.94140625 C22.59527397 15.91999775 18.9295675 15.94121122 15.26196289 15.96679688 C12.9312294 15.96415359 10.60049713 15.95902861 8.26977539 15.95117188 C7.17383057 15.9592688 6.07788574 15.96736572 4.94873047 15.97570801 C-2.64308005 15.88228044 -2.64308005 15.88228044 -6.61108398 13.51391602 C-8.5866928 11.22407861 -9.0555061 10.33694671 -8.91772461 7.35742188 C-8.41772461 3.41992188 -8.41772461 3.41992188 -7.2250824 1.70007324 C-4.74430271 -0.0570628 -3.02776668 0.02611531 0 0 Z " fill="#DDEAFA" transform="translate(228.417724609375,285.580078125)"/>
</svg>
